# xmcd CD database file
#
# Track frame offsets:
#	150
#	18569
#	36900
#	50017
#	65276
#	78527
#	96215
#	116413
#	134203
#	150629
#	165402
#	181662
#	197814
#	211709
#	228772
#	246045
#	263978
#	282644
#	300708
#	316694
#	334560
#
# Disc length: 4671 seconds
#
# Revision: 9
# Processed by: cddbd v1.5.1PL0 Copyright (c) Steve Scherf et al.
# Submitted via: CDex 1.51
#
DISCID=20123d15
DTITLE=Shania Twain - Greatest Hits
DYEAR=2004
DGENRE=Pop
TTITLE0=Forever And For Always
TTITLE1=I'm Gonna Getcha Good!
TTITLE2=Up!
TTITLE3=Ka-Ching!
TTITLE4=Come On Over
TTITLE5=Man! I Feel Like A Woman!
TTITLE6=That Don't Impress Me Much
TTITLE7=From This Moment On
TTITLE8=Honey I'm Home
TTITLE9=You're Still The One
TTITLE10=Don't Be Stupid (You Know I Love You)
TTITLE11=Love Gets Me Every Time
TTITLE12=No One Needs To Know
TTITLE13=You Win My Love
TTITLE14=(If You're Not In It For Love) I'm Outta Here!
TTITLE15=The Woman In Me (Needs The Man In You)
TTITLE16=Any Man Of Mine
TTITLE17=Whose Bed Have Your Boots Been Under?
TTITLE18=Party For Two (with Mark McGrath)
TTITLE19=Don't!
TTITLE20=I Ain't No Quitter
EXTD=YEAR: 2004
EXTT0=
EXTT1=
EXTT2=
EXTT3=
EXTT4=
EXTT5=
EXTT6=
EXTT7=
EXTT8=
EXTT9=
EXTT10=
EXTT11=
EXTT12=
EXTT13=
EXTT14=
EXTT15=
EXTT16=
EXTT17=
EXTT18=
EXTT19=
EXTT20=
PLAYORDER=
